<svg width="72" height="32" viewBox="0 0 72 32" fill="none" xmlns="http://www.w3.org/2000/svg">
<g id="Group 2">
<path id="Combined Shape Copy" fill-rule="evenodd" clip-rule="evenodd" d="M27.6809 1.63429C26.5093 0.462721 24.6098 0.462723 23.4383 1.6343L15.9999 9.07263L8.56158 1.63429C7.39001 0.462722 5.49051 0.462723 4.31894 1.6343L1.63429 4.31894C0.462721 5.49052 0.462723 7.39001 1.6343 8.56159L9.07263 15.9999L1.63429 23.4383C0.462721 24.6098 0.462723 26.5093 1.6343 27.6809L4.31894 30.3656C5.49052 31.5371 7.39001 31.5371 8.56159 30.3656L15.9999 22.9272L23.4383 30.3656C24.6098 31.5371 26.5093 31.5371 27.6809 30.3656L30.3656 27.6809C31.5371 26.5093 31.5371 24.6098 30.3656 23.4383L22.9272 15.9999L30.3656 8.56158C31.5371 7.39001 31.5371 5.49051 30.3656 4.31894L27.6809 1.63429Z" fill="#31C3BD"/>
<path id="Oval Copy" fill-rule="evenodd" clip-rule="evenodd" d="M71.9702 15.8706C71.9702 7.10551 64.8647 0 56.0996 0C47.3345 0 40.229 7.10551 40.229 15.8706C40.229 24.6357 47.3345 31.7412 56.0996 31.7412C64.8647 31.7412 71.9702 24.6357 71.9702 15.8706ZM49.6338 15.8706C49.6338 12.2996 52.5286 9.4048 56.0996 9.4048C59.6706 9.4048 62.5654 12.2996 62.5654 15.8706C62.5654 19.4416 59.6706 22.3364 56.0996 22.3364C52.5286 22.3364 49.6338 19.4416 49.6338 15.8706Z" fill="#F2B137"/>
</g>
</svg>
