<svg width="64" height="64" viewBox="0 0 64 64" fill="none" xmlns="http://www.w3.org/2000/svg">
<path fill-rule="evenodd" clip-rule="evenodd" d="M53.2405 1.14748C52.0689 -0.0240952 50.1694 -0.0240936 48.9978 1.14748L31.9998 18.1455L15.0018 1.14748C13.8302 -0.0240944 11.9307 -0.0240934 10.7592 1.14748L1.14723 10.7594C-0.0243384 11.931 -0.0243366 13.8305 1.14724 15.0021L18.1452 32.0001L1.14723 48.9981C-0.024339 50.1696 -0.024338 52.0691 1.14723 53.2407L10.7592 62.8526C11.9307 64.0242 13.8302 64.0242 15.0018 62.8526L31.9998 45.8546L48.9978 62.8526C50.1694 64.0242 52.0689 64.0242 53.2405 62.8526L62.8524 53.2407C64.024 52.0691 64.024 50.1696 62.8524 48.9981L45.8544 32.0001L62.8524 15.0021C64.024 13.8305 64.024 11.931 62.8524 10.7594L53.2405 1.14748Z" fill="#1F3641"/>
</svg>
